<svg xmlns="http://www.w3.org/2000/svg" width="1400" height="1000" viewBox="0 0 1400 1000">
  <defs><marker id="a" markerWidth="12" markerHeight="12" refX="9" refY="3" orient="auto"><path d="M0,0 L0,6 L9,3 z" fill="#8d1117"/></marker></defs>
  <rect width="1400" height="1000" fill="#f4ead8"/>
  <text x="700" y="78" text-anchor="middle" font-family="Georgia, 'Noto Serif SC', serif" font-size="44" fill="#2a1a16" font-weight="700">BLOCKING DIAGRAM / U01 旧教室</text>
  <text x="700" y="116" text-anchor="middle" font-family="Arial, 'Noto Sans SC'" font-size="21" fill="#6b5846">人物站位、镜头轴线、运镜和权力压力一张图锁定</text>
  <g transform="translate(110 160)">
    <rect width="1180" height="720" rx="28" fill="#d9c7a6" stroke="#2a1a16" stroke-width="5"/>
    <rect x="70" y="54" width="1040" height="88" fill="#293232" stroke="#2a1a16" stroke-width="4"/>
    <text x="590" y="110" text-anchor="middle" font-family="Arial, 'Noto Sans SC'" font-size="32" fill="#f4ead8">黑板 / 失效的课堂秩序</text>
    <rect x="970" y="170" width="110" height="230" fill="#334a55" stroke="#2a1a16" stroke-width="4"/>
    <text x="1025" y="420" text-anchor="middle" font-family="Arial" font-size="22" fill="#2a1a16">门</text>
    <g fill="#8a6a42" stroke="#2a1a16" stroke-width="3">
      <rect x="160" y="230" width="150" height="72"/><rect x="420" y="230" width="150" height="72"/><rect x="680" y="230" width="150" height="72"/>
      <rect x="160" y="400" width="150" height="72"/><rect x="420" y="400" width="150" height="72"/><rect x="680" y="400" width="150" height="72"/>
      <rect x="160" y="570" width="150" height="72"/><rect x="420" y="570" width="150" height="72"/><rect x="680" y="570" width="150" height="72"/>
    </g>
    <circle cx="495" cy="492" r="34" fill="#8d1117" stroke="#fff0d7" stroke-width="5"/><text x="495" y="500" text-anchor="middle" font-family="Arial" font-size="24" fill="#fff">A</text>
    <text x="495" y="548" text-anchor="middle" font-family="Arial, 'Noto Sans SC'" font-size="22" fill="#2a1a16" font-weight="700">林澈</text>
    <circle cx="742" cy="435" r="28" fill="#111" stroke="#fff0d7" stroke-width="4"/><text x="742" y="443" text-anchor="middle" font-family="Arial" font-size="20" fill="#fff">B</text>
    <circle cx="260" cy="436" r="28" fill="#111" stroke="#fff0d7" stroke-width="4"/><text x="260" y="444" text-anchor="middle" font-family="Arial" font-size="20" fill="#fff">C</text>
    <circle cx="1028" cy="478" r="30" fill="#d03b25" stroke="#fff0d7" stroke-width="4"/><text x="1028" y="486" text-anchor="middle" font-family="Arial" font-size="20" fill="#fff">Z</text>
    <path d="M1030 480 C850 500 710 515 530 495" stroke="#8d1117" stroke-width="7" fill="none" marker-end="url(#a)"/>
    <path d="M120 700 C360 620 620 566 920 492" stroke="#293232" stroke-width="6" fill="none" stroke-dasharray="18 12" marker-end="url(#a)"/>
    <circle cx="120" cy="700" r="24" fill="#293232"/><text x="120" y="708" text-anchor="middle" font-family="Arial" font-size="18" fill="#fff">C1</text>
    <circle cx="930" cy="492" r="24" fill="#293232"/><text x="930" y="500" text-anchor="middle" font-family="Arial" font-size="18" fill="#fff">C2</text>
    <rect x="430" y="328" width="132" height="50" rx="8" fill="#c43a25" stroke="#2a1a16" stroke-width="3"/>
    <text x="496" y="360" text-anchor="middle" font-family="Arial, 'Noto Sans SC'" font-size="20" fill="#fff">红色学生卡</text>
  </g>
  <g transform="translate(110 905)">
    <circle cx="25" cy="0" r="16" fill="#8d1117"/><text x="54" y="8" font-family="Arial, 'Noto Sans SC'" font-size="22" fill="#2a1a16">红色：命运物件和权力压力线</text>
    <circle cx="435" cy="0" r="16" fill="#293232"/><text x="464" y="8" font-family="Arial, 'Noto Sans SC'" font-size="22" fill="#2a1a16">蓝黑：摄影机路径和观察角</text>
    <circle cx="865" cy="0" r="16" fill="#111"/><text x="894" y="8" font-family="Arial, 'Noto Sans SC'" font-size="22" fill="#2a1a16">黑色：群体围观压力</text>
  </g>
</svg>
