<svg xmlns="http://www.w3.org/2000/svg" width="1440" height="1440" viewBox="0 0 1440 1440">
  <defs>
    <linearGradient id="n" x1="0" y1="0" x2="0" y2="1"><stop stop-color="#253f4a"/><stop offset="1" stop-color="#111615"/></linearGradient>
    <linearGradient id="r" x1="0" y1="0" x2="1" y2="1"><stop stop-color="#6d0f12"/><stop offset="1" stop-color="#d23b25"/></linearGradient>
    <clipPath id="c"><rect width="420" height="420" rx="18"/></clipPath>
  </defs>
  <rect width="1440" height="1440" fill="#f4ead8"/>
  <g transform="translate(60 60)">
    <g clip-path="url(#c)"><rect width="420" height="420" fill="url(#n)"/><rect x="42" y="74" width="336" height="80" fill="#2a3332"/><circle cx="210" cy="238" r="62" fill="#f0c6a4"/><path d="M138 220c35-105 132-95 148 0" fill="#101010"/><rect x="156" y="302" width="108" height="92" fill="#1f3a4a"/><rect x="198" y="318" width="52" height="44" rx="6" fill="url(#r)"/></g>
    <g transform="translate(450 0)" clip-path="url(#c)"><rect width="420" height="420" fill="#d6bf98"/><rect x="72" y="84" width="276" height="118" fill="#2a3332"/><rect x="130" y="250" width="160" height="94" rx="8" fill="url(#r)"/><circle cx="176" cy="298" r="28" fill="#f0c6a4"/><path d="M116 72L360 360" stroke="#f1d7a8" stroke-width="22" opacity=".35"/></g>
    <g transform="translate(900 0)" clip-path="url(#c)"><rect width="420" height="420" fill="#4a4136"/><g fill="#d9c7a6"><rect x="42" y="190" width="96" height="52"/><rect x="162" y="190" width="96" height="52"/><rect x="282" y="190" width="96" height="52"/><rect x="100" y="286" width="96" height="52"/><rect x="224" y="286" width="96" height="52"/></g><circle cx="210" cy="126" r="58" fill="#f0c6a4"/><path d="M144 112c42-94 126-86 140 0" fill="#111"/></g>
    <g transform="translate(0 450)" clip-path="url(#c)"><rect width="420" height="420" fill="#263c44"/><rect x="80" y="50" width="260" height="310" fill="#101010" stroke="#e8d2ab" stroke-width="8"/><circle cx="210" cy="160" r="58" fill="#f0c6a4"/><path d="M140 148c44-86 122-84 138 0" fill="#111"/><rect x="156" y="232" width="108" height="106" fill="#1f3a4a"/><path d="M126 350h168" stroke="url(#r)" stroke-width="18"/></g>
    <g transform="translate(450 450)" clip-path="url(#c)"><rect width="420" height="420" fill="#e1cda6"/><g fill="#8a6a42"><rect x="52" y="92" width="112" height="58"/><rect x="256" y="92" width="112" height="58"/><rect x="52" y="262" width="112" height="58"/><rect x="256" y="262" width="112" height="58"/></g><circle cx="210" cy="207" r="66" fill="#f0c6a4"/><path d="M128 196c48-108 144-102 162 0" fill="#111"/><path d="M66 64C154 146 260 148 356 64" stroke="url(#r)" stroke-width="14" fill="none"/></g>
    <g transform="translate(900 450)" clip-path="url(#c)"><rect width="420" height="420" fill="#111615"/><rect x="70" y="88" width="280" height="100" rx="8" fill="url(#r)" stroke="#fff4df" stroke-width="8"/><path d="M66 286c82-62 210-62 288 0" stroke="#f1d7a8" stroke-width="24" fill="none"/><circle cx="210" cy="296" r="50" fill="#f0c6a4"/><path d="M168 320c30 24 58 24 88 0" stroke="#111" stroke-width="8" fill="none"/></g>
    <g transform="translate(0 900)" clip-path="url(#c)"><rect width="420" height="420" fill="#3b2a20"/><rect x="64" y="76" width="292" height="128" fill="#293232"/><circle cx="96" cy="288" r="48" fill="#101010"/><circle cx="210" cy="288" r="48" fill="#101010"/><circle cx="324" cy="288" r="48" fill="#101010"/><rect x="160" y="210" width="100" height="118" fill="url(#r)"/><path d="M72 360h276" stroke="#f1d7a8" stroke-width="14"/></g>
    <g transform="translate(450 900)" clip-path="url(#c)"><rect width="420" height="420" fill="#e8d2ab"/><rect width="420" height="130" fill="url(#r)"/><circle cx="210" cy="226" r="76" fill="#f0c6a4"/><path d="M116 212c58-126 174-126 196 0" fill="#111"/><rect x="146" y="306" width="128" height="114" fill="#1f3a4a"/><path d="M130 350h160" stroke="#c73b25" stroke-width="20"/></g>
    <g transform="translate(900 900)" clip-path="url(#c)"><rect width="420" height="420" fill="#101010"/><circle cx="210" cy="164" r="84" fill="#f0c6a4"/><path d="M112 150c52-134 178-124 196 0" fill="#111"/><rect x="100" y="274" width="220" height="80" rx="10" fill="url(#r)"/><path d="M0 420L420 0" stroke="#f1d7a8" stroke-width="32" opacity=".22"/></g>
  </g>
</svg>
