<svg width="1280" height="640" viewBox="0 0 1280 640" fill="none" xmlns="http://www.w3.org/2000/svg">
  <rect width="1280" height="640" fill="#F5EFE4"/>
  <rect x="44" y="44" width="1192" height="552" rx="18" fill="#EFE5D7" stroke="#C8B49C" stroke-width="2"/>
  <rect x="86" y="88" width="1108" height="464" fill="#F8F2E8" stroke="#D6C1A6"/>
  <g opacity="0.22">
    <path d="M92 156H1190" stroke="#9C2B20" stroke-width="2"/>
    <path d="M92 250H1190" stroke="#9C2B20" stroke-width="2"/>
    <path d="M92 344H1190" stroke="#9C2B20" stroke-width="2"/>
    <path d="M92 438H1190" stroke="#9C2B20" stroke-width="2"/>
    <path d="M274 88V552" stroke="#9C2B20" stroke-width="2"/>
    <path d="M458 88V552" stroke="#9C2B20" stroke-width="2"/>
    <path d="M642 88V552" stroke="#9C2B20" stroke-width="2"/>
    <path d="M826 88V552" stroke="#9C2B20" stroke-width="2"/>
    <path d="M1010 88V552" stroke="#9C2B20" stroke-width="2"/>
  </g>
  <circle cx="252" cy="320" r="64" fill="#1B1B1D"/>
  <circle cx="384" cy="320" r="46" fill="#8A1F16"/>
  <circle cx="514" cy="320" r="32" fill="#1B1B1D"/>
  <path d="M742 158C834 182 889 246 906 320C886 403 825 461 742 482" stroke="#101114" stroke-width="18" stroke-linecap="round"/>
  <path d="M754 210C812 229 849 272 862 320C848 371 809 412 754 430" stroke="#B91C1C" stroke-width="10" stroke-linecap="round"/>
  <rect x="949" y="154" width="120" height="332" fill="#8A1F16"/>
  <rect x="1085" y="154" width="34" height="332" fill="#111114"/>
  <text x="92" y="126" fill="#8A1F16" font-family="Georgia, 'Times New Roman', serif" font-size="22" letter-spacing="8">ACT I · COLOR / RITUAL / POWER</text>
  <text x="92" y="528" fill="#1B1B1D" font-family="Arial, 'Noto Sans SC', sans-serif" font-size="28" font-weight="700">Director Style Storyboard Pipeline</text>
  <text x="640" y="72" fill="#111114" text-anchor="middle" font-family="Arial, 'Noto Sans SC', sans-serif" font-size="20" letter-spacing="4">ZHANG YIMOU INSPIRED SKILL</text>
</svg>
